<mxfile host="app.diagrams.net" modified="2021-07-29T03:30:24.082Z" agent="5.0 (Macintosh; Intel Mac OS X 10_15_7) AppleWebKit/537.36 (KHTML, like Gecko) Chrome/92.0.4515.107 Safari/537.36" etag="xtaXvLWHYER1fIPnun4O" version="14.4.8" type="github">
  <diagram id="C5RBs43oDa-KdzZeNtuy" name="Page-1">
    <mxGraphModel dx="788" dy="1681" grid="1" gridSize="10" guides="1" tooltips="1" connect="1" arrows="1" fold="1" page="1" pageScale="1" pageWidth="827" pageHeight="1169" math="0" shadow="0">
      <root>
        <mxCell id="WIyWlLk6GJQsqaUBKTNV-0" />
        <mxCell id="WIyWlLk6GJQsqaUBKTNV-1" parent="WIyWlLk6GJQsqaUBKTNV-0" />
        <mxCell id="wSIf6lspD1HMRtOKXeUn-1" value="" style="whiteSpace=wrap;html=1;labelBackgroundColor=none;sketch=1;" vertex="1" parent="WIyWlLk6GJQsqaUBKTNV-1">
          <mxGeometry x="50" y="-30" width="870" height="600" as="geometry" />
        </mxCell>
        <mxCell id="wSIf6lspD1HMRtOKXeUn-2" value="mapi" style="whiteSpace=wrap;html=1;arcSize=50;labelBackgroundColor=none;sketch=1;" vertex="1" parent="WIyWlLk6GJQsqaUBKTNV-1">
          <mxGeometry x="170" y="240" width="270" height="20" as="geometry" />
        </mxCell>
        <mxCell id="wSIf6lspD1HMRtOKXeUn-3" value="" style="shape=umlActor;verticalLabelPosition=bottom;verticalAlign=top;html=1;outlineConnect=0;labelBackgroundColor=none;sketch=1;" vertex="1" parent="WIyWlLk6GJQsqaUBKTNV-1">
          <mxGeometry x="230" y="70" width="40" height="80" as="geometry" />
        </mxCell>
        <mxCell id="wSIf6lspD1HMRtOKXeUn-4" value="" style="shape=umlActor;verticalLabelPosition=bottom;verticalAlign=top;html=1;outlineConnect=0;labelBackgroundColor=none;sketch=1;" vertex="1" parent="WIyWlLk6GJQsqaUBKTNV-1">
          <mxGeometry x="660" y="70" width="40" height="80" as="geometry" />
        </mxCell>
        <mxCell id="wSIf6lspD1HMRtOKXeUn-8" value="游戏网关" style="whiteSpace=wrap;html=1;arcSize=50;labelBackgroundColor=none;sketch=1;" vertex="1" parent="WIyWlLk6GJQsqaUBKTNV-1">
          <mxGeometry x="610" y="270" width="190" height="20" as="geometry" />
        </mxCell>
        <mxCell id="wSIf6lspD1HMRtOKXeUn-22" style="edgeStyle=orthogonalEdgeStyle;orthogonalLoop=1;jettySize=auto;html=1;entryX=0.29;entryY=1.215;entryDx=0;entryDy=0;labelBackgroundColor=none;sketch=1;entryPerimeter=0;exitX=0.5;exitY=0;exitDx=0;exitDy=0;" edge="1" parent="WIyWlLk6GJQsqaUBKTNV-1" source="wSIf6lspD1HMRtOKXeUn-9" target="wSIf6lspD1HMRtOKXeUn-2">
          <mxGeometry relative="1" as="geometry">
            <Array as="points">
              <mxPoint x="248" y="400" />
            </Array>
          </mxGeometry>
        </mxCell>
        <mxCell id="wSIf6lspD1HMRtOKXeUn-36" value="轮询游戏信息" style="edgeLabel;html=1;align=center;verticalAlign=middle;resizable=0;points=[];" vertex="1" connectable="0" parent="wSIf6lspD1HMRtOKXeUn-22">
          <mxGeometry x="0.058" relative="1" as="geometry">
            <mxPoint as="offset" />
          </mxGeometry>
        </mxCell>
        <mxCell id="wSIf6lspD1HMRtOKXeUn-9" value="直播服务" style="whiteSpace=wrap;html=1;labelBackgroundColor=none;sketch=1;" vertex="1" parent="WIyWlLk6GJQsqaUBKTNV-1">
          <mxGeometry x="190" y="400" width="120" height="60" as="geometry" />
        </mxCell>
        <mxCell id="wSIf6lspD1HMRtOKXeUn-20" style="edgeStyle=orthogonalEdgeStyle;orthogonalLoop=1;jettySize=auto;html=1;entryX=1;entryY=0.5;entryDx=0;entryDy=0;exitX=0;exitY=0.5;exitDx=0;exitDy=0;labelBackgroundColor=none;sketch=1;" edge="1" parent="WIyWlLk6GJQsqaUBKTNV-1" source="wSIf6lspD1HMRtOKXeUn-10" target="wSIf6lspD1HMRtOKXeUn-9">
          <mxGeometry relative="1" as="geometry">
            <Array as="points">
              <mxPoint x="610" y="430" />
              <mxPoint x="610" y="430" />
            </Array>
          </mxGeometry>
        </mxCell>
        <mxCell id="wSIf6lspD1HMRtOKXeUn-41" value="游戏状态同步" style="edgeLabel;html=1;align=center;verticalAlign=middle;resizable=0;points=[];" vertex="1" connectable="0" parent="wSIf6lspD1HMRtOKXeUn-20">
          <mxGeometry x="0.0889" y="2" relative="1" as="geometry">
            <mxPoint as="offset" />
          </mxGeometry>
        </mxCell>
        <mxCell id="wSIf6lspD1HMRtOKXeUn-10" value="游戏服务" style="whiteSpace=wrap;html=1;labelBackgroundColor=none;sketch=1;" vertex="1" parent="WIyWlLk6GJQsqaUBKTNV-1">
          <mxGeometry x="640" y="400" width="120" height="60" as="geometry" />
        </mxCell>
        <mxCell id="wSIf6lspD1HMRtOKXeUn-11" value="房间服务" style="whiteSpace=wrap;html=1;labelBackgroundColor=none;sketch=1;" vertex="1" parent="WIyWlLk6GJQsqaUBKTNV-1">
          <mxGeometry x="385" y="310" width="160" height="60" as="geometry" />
        </mxCell>
        <mxCell id="wSIf6lspD1HMRtOKXeUn-12" value="mecury长连" style="whiteSpace=wrap;html=1;arcSize=50;labelBackgroundColor=none;sketch=1;" vertex="1" parent="WIyWlLk6GJQsqaUBKTNV-1">
          <mxGeometry x="310" y="190" width="310" height="20" as="geometry" />
        </mxCell>
        <mxCell id="wSIf6lspD1HMRtOKXeUn-23" value="" style="endArrow=classic;html=1;exitX=0.832;exitY=0;exitDx=0;exitDy=0;exitPerimeter=0;labelBackgroundColor=none;sketch=1;" edge="1" parent="WIyWlLk6GJQsqaUBKTNV-1" source="wSIf6lspD1HMRtOKXeUn-12">
          <mxGeometry width="50" height="50" relative="1" as="geometry">
            <mxPoint x="480" y="360" as="sourcePoint" />
            <mxPoint x="660" y="120" as="targetPoint" />
            <Array as="points">
              <mxPoint x="568" y="120" />
            </Array>
          </mxGeometry>
        </mxCell>
        <mxCell id="wSIf6lspD1HMRtOKXeUn-24" value="" style="endArrow=classic;html=1;exitX=0.168;exitY=-0.1;exitDx=0;exitDy=0;exitPerimeter=0;labelBackgroundColor=none;sketch=1;" edge="1" parent="WIyWlLk6GJQsqaUBKTNV-1" source="wSIf6lspD1HMRtOKXeUn-12" target="wSIf6lspD1HMRtOKXeUn-3">
          <mxGeometry width="50" height="50" relative="1" as="geometry">
            <mxPoint x="480" y="360" as="sourcePoint" />
            <mxPoint x="530" y="310" as="targetPoint" />
            <Array as="points">
              <mxPoint x="362" y="110" />
            </Array>
          </mxGeometry>
        </mxCell>
        <mxCell id="wSIf6lspD1HMRtOKXeUn-25" value="" style="endArrow=classic;startArrow=classic;html=1;exitX=0.461;exitY=-0.079;exitDx=0;exitDy=0;labelBackgroundColor=none;sketch=1;entryX=1;entryY=1;entryDx=0;entryDy=0;entryPerimeter=0;exitPerimeter=0;" edge="1" parent="WIyWlLk6GJQsqaUBKTNV-1" source="wSIf6lspD1HMRtOKXeUn-8" target="wSIf6lspD1HMRtOKXeUn-4">
          <mxGeometry width="50" height="50" relative="1" as="geometry">
            <mxPoint x="660" y="420" as="sourcePoint" />
            <mxPoint x="710" y="370" as="targetPoint" />
          </mxGeometry>
        </mxCell>
        <mxCell id="wSIf6lspD1HMRtOKXeUn-39" value="游戏操作" style="edgeLabel;html=1;align=center;verticalAlign=middle;resizable=0;points=[];" vertex="1" connectable="0" parent="wSIf6lspD1HMRtOKXeUn-25">
          <mxGeometry x="0.0595" y="1" relative="1" as="geometry">
            <mxPoint as="offset" />
          </mxGeometry>
        </mxCell>
        <mxCell id="wSIf6lspD1HMRtOKXeUn-26" value="" style="endArrow=classic;html=1;entryX=0.943;entryY=1.038;entryDx=0;entryDy=0;exitX=0.25;exitY=0;exitDx=0;exitDy=0;labelBackgroundColor=none;sketch=1;entryPerimeter=0;" edge="1" parent="WIyWlLk6GJQsqaUBKTNV-1" source="wSIf6lspD1HMRtOKXeUn-11" target="wSIf6lspD1HMRtOKXeUn-2">
          <mxGeometry width="50" height="50" relative="1" as="geometry">
            <mxPoint x="340" y="380" as="sourcePoint" />
            <mxPoint x="390" y="330" as="targetPoint" />
          </mxGeometry>
        </mxCell>
        <mxCell id="wSIf6lspD1HMRtOKXeUn-27" value="" style="endArrow=classic;html=1;entryX=0.5;entryY=1;entryDx=0;entryDy=0;labelBackgroundColor=none;sketch=1;exitX=0.5;exitY=0;exitDx=0;exitDy=0;" edge="1" parent="WIyWlLk6GJQsqaUBKTNV-1" source="wSIf6lspD1HMRtOKXeUn-11" target="wSIf6lspD1HMRtOKXeUn-12">
          <mxGeometry width="50" height="50" relative="1" as="geometry">
            <mxPoint x="350" y="360" as="sourcePoint" />
            <mxPoint x="400" y="310" as="targetPoint" />
          </mxGeometry>
        </mxCell>
        <mxCell id="wSIf6lspD1HMRtOKXeUn-35" value="广播消息" style="edgeLabel;html=1;align=center;verticalAlign=middle;resizable=0;points=[];" vertex="1" connectable="0" parent="wSIf6lspD1HMRtOKXeUn-27">
          <mxGeometry x="-0.38" y="-1" relative="1" as="geometry">
            <mxPoint as="offset" />
          </mxGeometry>
        </mxCell>
        <mxCell id="wSIf6lspD1HMRtOKXeUn-28" value="" style="endArrow=classic;startArrow=classic;html=1;entryX=0.468;entryY=0.95;entryDx=0;entryDy=0;entryPerimeter=0;exitX=0.5;exitY=0;exitDx=0;exitDy=0;labelBackgroundColor=none;sketch=1;" edge="1" parent="WIyWlLk6GJQsqaUBKTNV-1" source="wSIf6lspD1HMRtOKXeUn-10" target="wSIf6lspD1HMRtOKXeUn-8">
          <mxGeometry width="50" height="50" relative="1" as="geometry">
            <mxPoint x="669.9971428571429" y="490" as="sourcePoint" />
            <mxPoint x="674.64" y="360" as="targetPoint" />
          </mxGeometry>
        </mxCell>
        <mxCell id="wSIf6lspD1HMRtOKXeUn-40" value="游戏逻辑" style="edgeLabel;html=1;align=center;verticalAlign=middle;resizable=0;points=[];" vertex="1" connectable="0" parent="wSIf6lspD1HMRtOKXeUn-28">
          <mxGeometry x="0.1443" y="1" relative="1" as="geometry">
            <mxPoint as="offset" />
          </mxGeometry>
        </mxCell>
        <mxCell id="wSIf6lspD1HMRtOKXeUn-30" value="观众" style="text;html=1;strokeColor=none;fillColor=none;align=center;verticalAlign=middle;whiteSpace=wrap;labelBackgroundColor=none;sketch=1;" vertex="1" parent="WIyWlLk6GJQsqaUBKTNV-1">
          <mxGeometry x="230" y="40" width="40" height="20" as="geometry" />
        </mxCell>
        <mxCell id="wSIf6lspD1HMRtOKXeUn-31" value="主持" style="text;html=1;strokeColor=none;fillColor=none;align=center;verticalAlign=middle;whiteSpace=wrap;labelBackgroundColor=none;sketch=1;" vertex="1" parent="WIyWlLk6GJQsqaUBKTNV-1">
          <mxGeometry x="660" y="40" width="40" height="20" as="geometry" />
        </mxCell>
        <mxCell id="wSIf6lspD1HMRtOKXeUn-32" value="" style="endArrow=classic;startArrow=classic;html=1;labelBackgroundColor=none;sketch=1;" edge="1" parent="WIyWlLk6GJQsqaUBKTNV-1" source="wSIf6lspD1HMRtOKXeUn-3">
          <mxGeometry width="50" height="50" relative="1" as="geometry">
            <mxPoint x="100" y="200" as="sourcePoint" />
            <mxPoint x="249" y="237" as="targetPoint" />
            <Array as="points" />
          </mxGeometry>
        </mxCell>
        <mxCell id="wSIf6lspD1HMRtOKXeUn-33" value="" style="endArrow=classic;html=1;labelBackgroundColor=none;exitX=0;exitY=1;exitDx=0;exitDy=0;exitPerimeter=0;entryX=1;entryY=0.5;entryDx=0;entryDy=0;sketch=1;" edge="1" parent="WIyWlLk6GJQsqaUBKTNV-1" source="wSIf6lspD1HMRtOKXeUn-4" target="wSIf6lspD1HMRtOKXeUn-2">
          <mxGeometry width="50" height="50" relative="1" as="geometry">
            <mxPoint x="520" y="290" as="sourcePoint" />
            <mxPoint x="570" y="240" as="targetPoint" />
            <Array as="points">
              <mxPoint x="660" y="250" />
            </Array>
          </mxGeometry>
        </mxCell>
        <mxCell id="wSIf6lspD1HMRtOKXeUn-34" value="" style="endArrow=classic;html=1;entryX=0.25;entryY=0;entryDx=0;entryDy=0;exitX=1;exitY=0.5;exitDx=0;exitDy=0;labelBackgroundColor=none;sketch=1;" edge="1" parent="WIyWlLk6GJQsqaUBKTNV-1" source="wSIf6lspD1HMRtOKXeUn-11" target="wSIf6lspD1HMRtOKXeUn-10">
          <mxGeometry width="50" height="50" relative="1" as="geometry">
            <mxPoint x="440" y="340" as="sourcePoint" />
            <mxPoint x="438.75" y="270" as="targetPoint" />
            <Array as="points">
              <mxPoint x="670" y="340" />
            </Array>
          </mxGeometry>
        </mxCell>
        <mxCell id="wSIf6lspD1HMRtOKXeUn-42" value="成员变更" style="edgeLabel;html=1;align=center;verticalAlign=middle;resizable=0;points=[];" vertex="1" connectable="0" parent="wSIf6lspD1HMRtOKXeUn-34">
          <mxGeometry x="-0.1495" relative="1" as="geometry">
            <mxPoint as="offset" />
          </mxGeometry>
        </mxCell>
      </root>
    </mxGraphModel>
  </diagram>
</mxfile>
